<?xml version="1.0" encoding="UTF-8"?>
<svg version="1.1" xmlns="http://www.w3.org/2000/svg" width="500" height="500">
<path d="M0 0 C165 0 330 0 500 0 C500 165 500 330 500 500 C335 500 170 500 0 500 C0 335 0 170 0 0 Z " fill="#F5F3EF" transform="translate(0,0)"/>
<path d="M0 0 C0.66 0 1.32 0 2 0 C1.48732322 4.92615518 -0.15279643 8.40772251 -2.6875 12.5625 C-14.69654001 33.1113018 -24.15512901 55.40491723 -34.08288574 77.00500488 C-35.0691777 79.15048198 -36.05654321 81.2954633 -37.04394531 83.44042969 C-38.8452168 87.35472228 -40.64332264 91.2704567 -42.43927002 95.18719482 C-43.13527195 96.70475057 -43.83182732 98.22205264 -44.5289917 99.73907471 C-48.52038573 108.42888198 -52.40267582 117.13788607 -56 126 C-55.08710205 124.94039062 -55.08710205 124.94039062 -54.15576172 123.859375 C-42.58908882 110.52953769 -42.58908882 110.52953769 -35.1875 109.4375 C-31.77595753 110.03953691 -31.00071896 110.30466942 -29 113 C-28.671875 115.33984375 -28.671875 115.33984375 -28.75 117.9375 C-28.76546875 118.79214844 -28.7809375 119.64679688 -28.796875 120.52734375 C-28.98341413 122.79809898 -29.37144059 124.81524914 -30 127 C-29.03320312 126.59007812 -28.06640625 126.18015625 -27.0703125 125.7578125 C-25.75600447 125.21162194 -24.44083983 124.66748987 -23.125 124.125 C-22.44260254 123.84180908 -21.76020508 123.55861816 -21.05712891 123.2668457 C-17.13017629 121.6882015 -13.61012513 120.65593051 -9.375 120.1875 C-6.23685695 119.7115483 -5.31597505 119.38850569 -3.28125 116.88671875 C-2.01719368 114.62897371 -0.94145765 112.40814956 0 110 C0.66 110 1.32 110 2 110 C1.56798503 113.54252271 0.88060304 116.27222506 -0.5625 119.5625 C-1.9037546 122.76984795 -2.30923925 124.59836823 -2 128 C1.17108491 128.98733413 2.70064224 129.1084866 5.8671875 127.9609375 C6.85976563 127.43757813 7.85234375 126.91421875 8.875 126.375 C9.92171875 125.82328125 10.9684375 125.2715625 12.046875 124.703125 C15.55906143 122.67757833 18.74277491 120.40751419 22 118 C22.66 118 23.32 118 24 118 C24.20625 117.175 24.4125 116.35 24.625 115.5 C27.03042427 109.37710186 31.25848201 103.38602343 37 100 C39.8125 100.25 39.8125 100.25 42 101 C42.33 102.32 42.66 103.64 43 105 C43.99 105 44.98 105 46 105 C45.43205836 109.35704481 44.35510838 112.86149243 42.49609375 116.8359375 C42.00302734 117.89941406 41.50996094 118.96289062 41.00195312 120.05859375 C40.48568359 121.15300781 39.96941406 122.24742187 39.4375 123.375 C38.91736328 124.49261719 38.39722656 125.61023438 37.86132812 126.76171875 C36.58071341 129.51092832 35.29343785 132.2568061 34 135 C37.61476124 133.28267704 40.3256671 131.17323022 43.375 128.5625 C46.75309827 125.67342773 50.14808331 122.85539671 53.72265625 120.2109375 C60.62597625 115.08035976 65.40289161 111.00074333 69 103 C71.30670622 99.78459133 73.49152749 96.91371228 77 95 C79.625 95.125 79.625 95.125 82 96 C82.99 97.485 82.99 97.485 84 99 C84.99 99.33 85.98 99.66 87 100 C85.67927719 104.13467099 84.15714544 108.08736959 82.3984375 112.0546875 C81.66367187 113.71757812 81.66367187 113.71757812 80.9140625 115.4140625 C80.40617188 116.55617188 79.89828125 117.69828125 79.375 118.875 C78.6015625 120.62296875 78.6015625 120.62296875 77.8125 122.40625 C76.54408973 125.27191765 75.27318307 128.13645045 74 131 C78.73724279 127.49764746 83.37286718 123.92874103 87.875 120.125 C88.90317264 119.26375769 89.93182666 118.40308977 90.9609375 117.54296875 C92.9245846 115.89986558 94.8881332 114.25664468 96.8515625 112.61328125 C97.72554687 111.89527344 98.59953125 111.17726563 99.5 110.4375 C100.2734375 109.79683594 101.046875 109.15617187 101.84375 108.49609375 C103.96027121 107.02756545 105.48130884 106.41787376 108 106 C106.45418481 109.94542364 104.00391939 111.92195312 100.75 114.5625 C99.9624231 115.20505737 99.9624231 115.20505737 99.15893555 115.8605957 C97.44723165 117.25061688 95.72562769 118.62730913 94 120 C93.40977051 120.46954102 92.81954102 120.93908203 92.21142578 121.42285156 C89.32299398 123.71386578 86.42602625 125.99366711 83.51953125 128.26171875 C82.96483154 128.70225586 82.41013184 129.14279297 81.83862305 129.59667969 C80.51813334 130.60453719 79.15992984 131.56368144 77.78051758 132.48925781 C71.17934382 137.10214285 68.32436786 142.11569443 65.0625 149.375 C64.04095788 151.52558059 63.01487839 153.6740115 61.984375 155.8203125 C61.23317383 157.3966748 61.23317383 157.3966748 60.46679688 159.00488281 C52.03906105 176.21384805 38.66440472 200.16779764 21 209 C18 209.1875 18 209.1875 15 209 C13 207 13 207 12.4375 203.25 C12.91799135 185.61314114 32.12576004 167.40314072 44.046875 156.05078125 C46.00042676 154.32681357 47.99329169 152.66191307 50 151 C51.78656047 149.48435676 53.56809747 147.96298463 55.34814453 146.43969727 C56.5892245 145.377849 57.83230162 144.31832925 59.07763672 143.26147461 C59.65529785 142.7691333 60.23295898 142.27679199 60.828125 141.76953125 C61.3427832 141.33229736 61.85744141 140.89506348 62.38769531 140.44458008 C66.08454611 137.13230476 68.55327711 134.37942548 70.578125 129.796875 C71.01640625 128.8171875 71.4546875 127.8375 71.90625 126.828125 C72.3496875 125.81234375 72.793125 124.7965625 73.25 123.75 C73.70890625 122.71875 74.1678125 121.6875 74.640625 120.625 C75.76868854 118.08685703 76.88811568 115.54526205 78 113 C75.42170329 115.04115156 72.91516564 117.07847178 70.5 119.3125 C68 121 68 121 65.25 120.875 C63 120 63 120 62 118 C61.5373877 118.38220703 61.07477539 118.76441406 60.59814453 119.15820312 C36.92307692 138.70998567 36.92307692 138.70998567 32.484375 141.6875 C29.12122999 144.8179746 27.78841073 148.19933451 26 152.375 C16.83798125 172.66317495 1.95505398 203.52247301 -19 214 C-22 214.1875 -22 214.1875 -25 214 C-27.38590617 211.61409383 -27.37248852 210.9084207 -27.5 207.625 C-27.07044394 190.03846941 -9.26786799 173.94593602 2.6484375 162.44921875 C23.10715835 143 23.10715835 143 27 143 C27.28536621 142.28432861 27.57073242 141.56865723 27.86474609 140.83129883 C28.95350687 138.11595287 30.05576097 135.40664107 31.1640625 132.69921875 C31.56367188 131.72275391 31.96328125 130.74628906 32.375 129.74023438 C32.99375 128.22913086 32.99375 128.22913086 33.625 126.6875 C34.25535156 125.14739258 34.25535156 125.14739258 34.8984375 123.57617188 C35.93211533 121.050709 36.96597532 118.52532087 38 116 C37.40832031 116.63808594 36.81664062 117.27617187 36.20703125 117.93359375 C35.41683594 118.75988281 34.62664062 119.58617187 33.8125 120.4375 C33.03519531 121.26121094 32.25789062 122.08492188 31.45703125 122.93359375 C28.8538199 125.12294002 27.33772044 125.67393495 24 126 C23.67 124.68 23.34 123.36 23 122 C22.02417969 122.63808594 21.04835938 123.27617187 20.04296875 123.93359375 C18.75792538 124.76840295 17.4727629 125.60302882 16.1875 126.4375 C15.54490234 126.85837891 14.90230469 127.27925781 14.24023438 127.71289062 C8.43009392 131.47593496 3.88026286 132.92249334 -3 132 C-5.0625 130.3125 -5.0625 130.3125 -6 128 C-6.03691856 126.33374228 -6.04144655 124.66615124 -6 123 C-19.62869837 126.03488304 -32.13340662 129.6859535 -40 142 C-41.58054022 143.97801335 -43.01629081 145.38171092 -45 147 C-47.3125 146.8125 -47.3125 146.8125 -49 146 C-48.4987676 141.75426673 -47.35632655 139.896124 -44.25 137 C-43.17105469 135.96939453 -43.17105469 135.96939453 -42.0703125 134.91796875 C-41.38710937 134.28503906 -40.70390625 133.65210938 -40 133 C-35.7639484 129.04021264 -33.15275434 126.42380406 -32.88671875 120.4609375 C-32.87619371 117.97001169 -32.91299686 115.4892564 -33 113 C-40.99437927 113.63860426 -45.92130099 119.27667178 -51 125 C-58.04593558 133.90856911 -63.52796093 144.08001855 -69 154 C-69.66 154 -70.32 154 -71 154 C-70.41347648 149.51006131 -69.2356462 145.77456816 -67.4375 141.625 C-66.98246094 140.56539062 -66.52742188 139.50578125 -66.05859375 138.4140625 C-65.70925781 137.61742187 -65.35992187 136.82078125 -65 136 C-66.11181641 136.92619141 -66.11181641 136.92619141 -67.24609375 137.87109375 C-73.52289644 142.96561849 -79.89763452 147.29806685 -87.0625 151.0625 C-87.78816162 151.44398193 -88.51382324 151.82546387 -89.26147461 152.21850586 C-94.27361664 154.78117977 -98.37602651 156.1470774 -104.0625 156.25 C-105.34833984 156.28867187 -105.34833984 156.28867187 -106.66015625 156.328125 C-109 156 -109 156 -110.76953125 154.77734375 C-113.45104208 150.90405033 -112.71789987 146.45717688 -112 142 C-109.13768877 132.58030742 -104.49351308 124.3723344 -98 117 C-97.29875 116.01 -96.5975 115.02 -95.875 114 C-93.64157084 111.61767556 -92.20680842 111.26723403 -89 111 C-86.8480563 114.22791555 -86.79913557 115.28400809 -87 119 C-87.66 119 -88.32 119 -89 119 C-89.66 117.35 -90.32 115.7 -91 114 C-98.45441543 121.28663116 -108.0900356 134.4401654 -109.23046875 145.16796875 C-109.23365105 149.21491619 -109.23365105 149.21491619 -108 153 C-93.14392729 154.10044983 -80.02459011 143.87257382 -69.08984375 134.81640625 C-63.235329 129.72790278 -59.21931487 124.82471477 -56.0234375 117.69140625 C-55.74113281 117.06549088 -55.45882812 116.4395755 -55.16796875 115.79469299 C-54.55506389 114.43449889 -53.94436746 113.07330798 -53.33563232 111.71124268 C-52.01736941 108.76255178 -50.68742857 105.81917464 -49.35830688 102.87536621 C-48.65445392 101.31612312 -47.95115593 99.7566294 -47.24838257 98.19689941 C-43.32487923 89.49055932 -39.35854349 80.804014 -35.375 72.125 C-35.01764771 71.34631561 -34.66029541 70.56763123 -34.29211426 69.76535034 C-28.18686679 56.47458744 -21.90520445 43.27927184 -15.50976562 30.12548828 C-13.94288126 26.88175386 -12.39813255 23.62825831 -10.859375 20.37109375 C-10.35647949 19.30874512 -9.85358398 18.24639648 -9.33544922 17.15185547 C-8.39090385 15.15381517 -7.44959987 13.15423795 -6.51220703 11.15283203 C-6.09310059 10.26837402 -5.67399414 9.38391602 -5.2421875 8.47265625 C-4.8797998 7.70187744 -4.51741211 6.93109863 -4.14404297 6.13696289 C-2.93747569 3.88321057 -1.67101303 1.93614417 0 0 Z " fill="#355A91" transform="translate(291,145)"/>
<path d="M0 0 C2.375 0.875 2.375 0.875 4.375 3.875 C5.365 4.205 6.355 4.535 7.375 4.875 C6.05427719 9.00967099 4.53214544 12.96236959 2.7734375 16.9296875 C2.28359375 18.03828125 1.79375 19.146875 1.2890625 20.2890625 C0.52722656 22.00222656 0.52722656 22.00222656 -0.25 23.75 C-0.765625 24.9153125 -1.28125 26.080625 -1.8125 27.28125 C-3.08091027 30.14691765 -4.35181693 33.01145045 -5.625 35.875 C-0.88775721 32.37264746 3.74786718 28.80374103 8.25 25 C9.27817264 24.13875769 10.30682666 23.27808977 11.3359375 22.41796875 C13.2995846 20.77486558 15.2631332 19.13164468 17.2265625 17.48828125 C18.10054688 16.77027344 18.97453125 16.05226563 19.875 15.3125 C20.6484375 14.67183594 21.421875 14.03117188 22.21875 13.37109375 C24.33527121 11.90256545 25.85630884 11.29287376 28.375 10.875 C26.82918481 14.82042364 24.37891939 16.79695312 21.125 19.4375 C20.59994873 19.86587158 20.07489746 20.29424316 19.53393555 20.7355957 C17.82223165 22.12561688 16.10062769 23.50230913 14.375 24.875 C13.78477051 25.34454102 13.19454102 25.81408203 12.58642578 26.29785156 C9.69799398 28.58886578 6.80102625 30.86866711 3.89453125 33.13671875 C3.33983154 33.57725586 2.78513184 34.01779297 2.21362305 34.47167969 C0.89313334 35.47953719 -0.46507016 36.43868144 -1.84448242 37.36425781 C-8.44565618 41.97714285 -11.30063214 46.99069443 -14.5625 54.25 C-15.58404212 56.40058059 -16.61012161 58.5490115 -17.640625 60.6953125 C-18.14142578 61.7462207 -18.64222656 62.79712891 -19.15820312 63.87988281 C-27.58593895 81.08884805 -40.96059528 105.04279764 -58.625 113.875 C-61.625 114.0625 -61.625 114.0625 -64.625 113.875 C-66.625 111.875 -66.625 111.875 -67.1875 108.125 C-66.70700865 90.48814114 -47.49923996 72.27814072 -35.578125 60.92578125 C-33.62457324 59.20181357 -31.63170831 57.53691307 -29.625 55.875 C-27.83843953 54.35935676 -26.05690253 52.83798463 -24.27685547 51.31469727 C-23.0357755 50.252849 -21.79269838 49.19332925 -20.54736328 48.13647461 C-19.96970215 47.6441333 -19.39204102 47.15179199 -18.796875 46.64453125 C-18.2822168 46.20729736 -17.76755859 45.77006348 -17.23730469 45.31958008 C-13.54045389 42.00730476 -11.07172289 39.25442548 -9.046875 34.671875 C-8.60859375 33.6921875 -8.1703125 32.7125 -7.71875 31.703125 C-7.05359375 30.17945313 -7.05359375 30.17945313 -6.375 28.625 C-5.91609375 27.59375 -5.4571875 26.5625 -4.984375 25.5 C-3.85631146 22.96185703 -2.73688432 20.42026205 -1.625 17.875 C-4.20329671 19.91615156 -6.70983436 21.95347178 -9.125 24.1875 C-11.625 25.875 -11.625 25.875 -14.3125 25.875 C-16.625 24.875 -16.625 24.875 -17.92578125 23.109375 C-18.625 20.875 -18.625 20.875 -17.71875 18.578125 C-17.1928125 17.76859375 -16.666875 16.9590625 -16.125 16.125 C-15.56039062 15.25230469 -14.99578125 14.37960938 -14.4140625 13.48046875 C-4.99430522 -0.23782406 -4.99430522 -0.23782406 0 0 Z " fill="#3B5F94" transform="translate(370.625,240.125)"/>
<path d="M0 0 C2.0625 0.4375 2.0625 0.4375 4 1 C3.23748022 4.71525595 1.55878424 7.3130772 -0.48828125 10.4921875 C-3.32651459 15.20057459 -5.65483811 20.18213756 -8.07177734 25.11572266 C-9.25836332 27.52447346 -10.47057894 29.92013566 -11.68164062 32.31665039 C-20.37134563 49.54988266 -28.59050127 67.02195158 -36.90551758 84.43798828 C-39.24871712 89.34500366 -41.60002165 94.24789506 -43.96484375 99.14453125 C-50.82023747 113.35090263 -57.48424163 127.63465548 -64 142 C-59.83741675 137.900726 -55.84803967 133.65751855 -51.875 129.375 C-50.64372851 128.04901532 -49.4119751 126.72347793 -48.1796875 125.3984375 C-47.37120361 124.52711182 -47.37120361 124.52711182 -46.54638672 123.63818359 C-45.78092529 122.82728271 -45.78092529 122.82728271 -45 122 C-44.28287842 121.15236084 -44.28287842 121.15236084 -43.55126953 120.28759766 C-42 119 -42 119 -38 119 C-37.67 125.93 -37.34 132.86 -37 140 C-28.49766331 137.57076095 -25.23800084 134.56421316 -20.83300781 126.99462891 C-19.21308218 124.03355248 -17.64850312 121.05096838 -16.14501953 118.02905273 C-12.91434868 111.55366463 -9.61847672 106.4416079 -3 103 C2.3 103.3 2.3 103.3 4 105 C4.99294203 112.65983851 2.20974118 117.69914556 -2 124 C-3.75265417 126.17358147 -5.55229381 128.23133341 -7.484375 130.24609375 C-9.0554569 132.06417564 -10.02042402 133.81516141 -11 136 C-15.58942308 135.50384615 -15.58942308 135.50384615 -17.66796875 132.953125 C-18.10753906 132.30859375 -18.54710937 131.6640625 -19 131 C-19.61488281 131.69867188 -20.22976562 132.39734375 -20.86328125 133.1171875 C-21.67152344 134.02726563 -22.47976562 134.93734375 -23.3125 135.875 C-24.11300781 136.77992188 -24.91351563 137.68484375 -25.73828125 138.6171875 C-28.80296909 141.84596053 -30.1657975 142.97172195 -34.6875 143.125 C-35.780625 143.08375 -36.87375 143.0425 -38 143 C-41.57818229 137.48363564 -41.49890457 132.35143889 -41 126 C-40.70375891 124.65793811 -40.38410944 123.31960177 -40 122 C-43.72861023 125.68080753 -47.32717668 129.45765351 -50.875 133.3125 C-51.4009375 133.8806543 -51.926875 134.44880859 -52.46875 135.03417969 C-55.93639503 138.79435389 -59.28737545 142.62705915 -62.5 146.609375 C-64.27662752 148.25645677 -65.63641293 148.61286074 -68 149 C-69.32470897 145.01929652 -68.76965262 142.72301844 -66.95466614 138.98930359 C-66.63447006 138.36634903 -66.31427399 137.74339447 -65.984375 137.1015625 C-65.65785446 136.43900955 -65.33133392 135.7764566 -64.99491882 135.09382629 C-63.92576318 132.93109543 -62.83784463 130.77838165 -61.75 128.625 C-61.00247989 127.11931856 -60.25647848 125.61288223 -59.51196289 124.10571289 C-58.02748386 121.10325759 -56.537117 118.10385755 -55.04150391 115.10693359 C-52.45212211 109.90983097 -49.93355411 104.6799855 -47.4375 99.4375 C-47.01291504 98.54844971 -46.58833008 97.65939941 -46.15087891 96.7434082 C-37.97916848 79.59975876 -29.94934988 62.38753627 -21.97705078 45.15039062 C-16.9738071 34.33569872 -11.90978763 23.55322743 -6.75 12.8125 C-5.90767822 11.05522583 -5.90767822 11.05522583 -5.04833984 9.26245117 C-4.53223145 8.1922876 -4.01612305 7.12212402 -3.484375 6.01953125 C-3.02772461 5.07182861 -2.57107422 4.12412598 -2.10058594 3.14770508 C-1 1 -1 1 0 0 Z " fill="#3C6094" transform="translate(168,161)"/>
<path d="M0 0 C-7.90594054 20.38025695 -22.82518365 49.55412289 -42.09375 61.2734375 C-44.67018902 62.2554409 -46.39187774 61.72447841 -49 61 C-48.7627986 48.90272883 -40.69120866 38.74925853 -33 30 C-32.17628906 29.05511719 -31.35257812 28.11023438 -30.50390625 27.13671875 C-23.79882694 19.5762234 -16.53127761 12.72754443 -9 6 C-8.23816406 5.31164062 -7.47632813 4.62328125 -6.69140625 3.9140625 C-2.27200704 0 -2.27200704 0 0 0 Z " fill="#EFEFED" transform="translate(315,294)"/>
<path d="M0 0 C0.495 0.99 0.495 0.99 1 2 C0.24658203 3.93261719 0.24658203 3.93261719 -0.9921875 6.296875 C-1.4454541 7.16642822 -1.8987207 8.03598145 -2.36572266 8.93188477 C-2.86378418 9.86186279 -3.3618457 10.79184082 -3.875 11.75 C-4.37950684 12.6999585 -4.88401367 13.64991699 -5.40380859 14.62866211 C-27.9381453 56.56184557 -27.9381453 56.56184557 -43 62 C-44.32 62 -45.64 62 -47 62 C-48.22639761 51.37122068 -42.01939736 42.63098066 -35.72900391 34.50048828 C-31.01854863 28.72632717 -25.7483978 23.46807681 -20.5 18.1875 C-19.62206787 17.30392822 -18.74413574 16.42035645 -17.83959961 15.51000977 C-12.18986518 9.92237768 -6.30948633 4.82953566 0 0 Z " fill="#F2F0EE" transform="translate(354,289)"/>
<path d="M0 0 C0.99 0.495 0.99 0.495 2 1 C0.45350522 5.33625007 -2.8907749 7.52757373 -6.4375 10.1875 C-7.70647057 11.16049216 -8.97469034 12.13446423 -10.2421875 13.109375 C-10.87479492 13.59341797 -11.50740234 14.07746094 -12.15917969 14.57617188 C-15.70169286 17.31621655 -19.14213181 20.17879895 -22.59765625 23.02734375 C-25 25 -25 25 -27.55859375 26.73046875 C-30.89863937 29.83537516 -32.22477441 33.2301198 -34 37.375 C-43.16201875 57.66317495 -58.04494602 88.52247301 -79 99 C-82 99.1875 -82 99.1875 -85 99 C-87.38590617 96.61409383 -87.37248852 95.9084207 -87.5 92.625 C-87.07044394 75.03846941 -69.26786799 58.94593602 -57.3515625 47.44921875 C-36.89284165 28 -36.89284165 28 -33 28 C-32.7124585 27.2790918 -32.42491699 26.55818359 -32.12866211 25.81542969 C-30.30970924 21.27808068 -28.44651803 16.76068614 -26.5625 12.25 C-26.16740234 11.27933594 -25.77230469 10.30867188 -25.36523438 9.30859375 C-24.97787109 8.38691406 -24.59050781 7.46523438 -24.19140625 6.515625 C-23.66848999 5.25153809 -23.66848999 5.25153809 -23.13500977 3.96191406 C-22 2 -22 2 -19 1 C-19.58838199 5.84111765 -21.07653116 9.96071195 -23.0625 14.375 C-23.34416016 15.01566406 -23.62582031 15.65632813 -23.91601562 16.31640625 C-24.60459421 17.88029659 -25.30144711 19.44053941 -26 21 C-25.56768066 20.64808594 -25.13536133 20.29617188 -24.68994141 19.93359375 C-16.48554437 13.25676174 -8.27749263 6.58617803 0 0 Z M-44.125 39.5625 C-45.30651193 40.6727054 -46.488801 41.78208434 -47.671875 42.890625 C-48.24486328 43.42880859 -48.81785156 43.96699219 -49.40820312 44.52148438 C-51.357719 46.33226169 -53.35604505 48.07969615 -55.375 49.8125 C-67.2072625 60.11003389 -83.90467669 76.5822895 -85.25 93.0625 C-85.1675 93.701875 -85.085 94.34125 -85 95 C-82.79561167 95.87754191 -82.79561167 95.87754191 -80 96 C-62.67251313 87.53773897 -51.68905866 65.21903828 -43.07226562 49.00488281 C-42.0832424 47.15564357 -41.07240639 45.32137031 -40.046875 43.4921875 C-37.17280402 39.00045325 -37.17280402 39.00045325 -36 34 C-39.50389372 34 -41.69572455 37.24787759 -44.125 39.5625 Z " fill="#385D93" transform="translate(351,260)"/>
<path d="M0 0 C0.66 0 1.32 0 2 0 C1.48732322 4.92615518 -0.15279643 8.40772251 -2.6875 12.5625 C-20.44686512 42.95074698 -33.84374557 76.29596071 -48.39956665 108.30053711 C-49.76627691 111.30506897 -51.14225502 114.3035524 -52.54296875 117.29248047 C-52.99285156 118.25686035 -53.44273437 119.22124023 -53.90625 120.21484375 C-54.48342773 121.43675415 -54.48342773 121.43675415 -55.07226562 122.68334961 C-56.04419867 125.11036874 -56.56833139 127.42626155 -57 130 C-57.66 129.34 -58.32 128.68 -59 128 C-60.485 128.99 -60.485 128.99 -62 130 C-61.73388916 129.47913818 -61.46777832 128.95827637 -61.19360352 128.42163086 C-59.70112415 125.39362865 -58.30102146 122.32594293 -56.90234375 119.25390625 C-56.59638275 118.58350815 -56.29042175 117.91311005 -55.97518921 117.22239685 C-55.31103619 115.76712313 -54.64716771 114.31171954 -53.98355103 112.85620117 C-52.18133271 108.90443384 -50.37552204 104.95430781 -48.5703125 101.00390625 C-47.8088962 99.33741289 -47.04750313 97.6709089 -46.28613281 96.00439453 C-45.90734985 95.17530579 -45.52856689 94.34621704 -45.13830566 93.49200439 C-44.02253955 91.0493441 -42.90724438 88.60646919 -41.79199219 86.16357422 C-33.21863896 67.38948665 -24.53472752 48.68752891 -15.50976562 30.12548828 C-13.94288126 26.88175386 -12.39813255 23.62825831 -10.859375 20.37109375 C-10.35647949 19.30874512 -9.85358398 18.24639648 -9.33544922 17.15185547 C-8.39090385 15.15381517 -7.44959987 13.15423795 -6.51220703 11.15283203 C-6.09310059 10.26837402 -5.67399414 9.38391602 -5.2421875 8.47265625 C-4.8797998 7.70187744 -4.51741211 6.93109863 -4.14404297 6.13696289 C-2.93747569 3.88321057 -1.67101303 1.93614417 0 0 Z M-88 112 C-87.67 114.31 -87.34 116.62 -87 119 C-87.66 119 -88.32 119 -89 119 C-89.66 117.35 -90.32 115.7 -91 114 C-98.45441543 121.28663116 -108.0900356 134.4401654 -109.23046875 145.16796875 C-109.23365105 149.21491619 -109.23365105 149.21491619 -108 153 C-93.09826455 154.10383226 -79.98391247 143.85990566 -69.12109375 134.6640625 C-67.14487633 133.11365988 -65.28391553 132.02543146 -63 131 C-62.505 132.485 -62.505 132.485 -62 134 C-63.9198261 135.9198261 -65.73296515 137.20987907 -68 138.6875 C-71.33892584 140.87617388 -74.58612278 143.14927928 -77.8125 145.5 C-85.75001855 151.0898018 -94.18790837 156.07127436 -104.0625 156.25 C-104.91972656 156.27578125 -105.77695313 156.3015625 -106.66015625 156.328125 C-109 156 -109 156 -110.76953125 154.77734375 C-113.45104208 150.90405033 -112.71789987 146.45717688 -112 142 C-109.14322485 132.59852632 -104.51219797 124.33837233 -98 117 C-96.8553125 115.515 -96.8553125 115.515 -95.6875 114 C-93.02248664 110.84146565 -91.78930391 110.86320883 -88 112 Z " fill="#3D6195" transform="translate(291,145)"/>
<path d="M0 0 C1.60400401 3.20800803 2.86409113 6.28315061 4.125 9.625 C9.24502965 21.91606534 18.07004397 30.69536164 30.3125 35.8125 C31.29863281 36.19019531 32.28476562 36.56789063 33.30078125 36.95703125 C36 38 36 38 40 40 C26.8 40 13.6 40 0 40 C0 26.8 0 13.6 0 0 Z " fill="#000000" transform="translate(0,460)"/>
<path d="M0 0 C13.2 0 26.4 0 40 0 C40 12.87 40 25.74 40 39 C38.0841994 36.12629911 37.07476121 33.65504143 35.875 30.4375 C30.78163208 18.1061882 21.95518479 9.31518356 9.6875 4.1875 C8.20830078 3.62095703 8.20830078 3.62095703 6.69921875 3.04296875 C4 2 4 2 0 0 Z " fill="#000000" transform="translate(460,0)"/>
<path d="M0 0 C13.2 0 26.4 0 40 0 C36.79199197 1.60400401 33.71684939 2.86409113 30.375 4.125 C18.41936913 9.12832971 9.69380034 17.73163915 4.39453125 29.59375 C3.18565078 32.70907221 2.04902779 35.82769962 1 39 C0.67 39 0.34 39 0 39 C0 26.13 0 13.26 0 0 Z " fill="#000000" transform="translate(0,0)"/>
<path d="M0 0 C0.33 0 0.66 0 1 0 C1 12.87 1 25.74 1 39 C-11.87 39 -24.74 39 -38 39 C-35.12629911 37.0841994 -32.65504143 36.07476121 -29.4375 34.875 C-17.06090169 29.76292679 -8.31793421 20.90458801 -3.125 8.625 C-2.00955035 5.76619858 -0.97039522 2.91118567 0 0 Z " fill="#000000" transform="translate(499,461)"/>
<path d="M0 0 C1 1 1 1 1.4375 4.375 C1.31441383 12.96026028 -4.79583011 20.31412014 -10.484375 26.24609375 C-12.0554569 28.06417564 -13.02042402 29.81516141 -14 32 C-16.3125 31.75 -16.3125 31.75 -19 31 C-19.99 29.68 -20.98 28.36 -22 27 C-24.97 30.3 -27.94 33.6 -31 37 C-31.99 36.67 -32.98 36.34 -34 36 C-33.45472656 35.40316406 -32.90945312 34.80632812 -32.34765625 34.19140625 C-26.82420826 27.83708061 -22.83131072 21.44632693 -19.09594727 13.92797852 C-15.17398481 6.07768826 -10.03504297 -3.0338502 0 0 Z " fill="#365B92" transform="translate(171,265)"/>
<path d="M0 0 C2.375 0.875 2.375 0.875 4.375 3.875 C5.365 4.205 6.355 4.535 7.375 4.875 C6.05427719 9.00967099 4.53214544 12.96236959 2.7734375 16.9296875 C2.28359375 18.03828125 1.79375 19.146875 1.2890625 20.2890625 C0.78117187 21.43117188 0.27328125 22.57328125 -0.25 23.75 C-0.765625 24.9153125 -1.28125 26.080625 -1.8125 27.28125 C-3.08091027 30.14691765 -4.35181693 33.01145045 -5.625 35.875 C-6.615 35.875 -7.605 35.875 -8.625 35.875 C-6.56735079 29.42146385 -4.20116518 23.1388737 -1.625 16.875 C-2.28886719 17.53628906 -2.95273437 18.19757813 -3.63671875 18.87890625 C-4.51972656 19.72324219 -5.40273438 20.56757813 -6.3125 21.4375 C-7.18261719 22.28441406 -8.05273438 23.13132812 -8.94921875 24.00390625 C-11.625 25.875 -11.625 25.875 -14.33203125 25.90234375 C-16.625 24.875 -16.625 24.875 -18.09375 23.109375 C-18.625 20.875 -18.625 20.875 -17.71875 18.578125 C-16.92984375 17.36382812 -16.92984375 17.36382812 -16.125 16.125 C-15.56039063 15.25230469 -14.99578125 14.37960938 -14.4140625 13.48046875 C-4.99430522 -0.23782406 -4.99430522 -0.23782406 0 0 Z " fill="#385D93" transform="translate(370.625,240.125)"/>
<path d="M0 0 C1.0828125 0.37125 1.0828125 0.37125 2.1875 0.75 C2.5175 2.07 2.8475 3.39 3.1875 4.75 C4.1775 4.75 5.1675 4.75 6.1875 4.75 C5.64410208 9.31454251 4.39286179 12.7228176 2.1875 16.75 C1.61902344 16.49476563 1.05054688 16.23953125 0.46484375 15.9765625 C-0.28667969 15.90179688 -1.03820312 15.82703125 -1.8125 15.75 C-4.11355364 17.59450564 -4.11355364 17.59450564 -6.25 20.125 C-9.33825493 23.59458728 -11.10931836 25.30207794 -15.8125 25.75 C-16.1425 24.43 -16.4725 23.11 -16.8125 21.75 C-18.1325 22.08 -19.4525 22.41 -20.8125 22.75 C-19.4375 20.25 -19.4375 20.25 -17.8125 17.75 C-17.1525 17.75 -16.4925 17.75 -15.8125 17.75 C-15.60625 16.925 -15.4 16.1 -15.1875 15.25 C-12.83363994 9.25835621 -7.27496081 -0.64666318 0 0 Z " fill="#345990" transform="translate(330.8125,245.25)"/>
<path d="M0 0 C0.53024668 8.49657175 -3.95881567 15.91822261 -9.375 22.25 C-10.24125 23.1575 -11.1075 24.065 -12 25 C-12.66 24.67 -13.32 24.34 -14 24 C-13.49339844 23.00419922 -13.49339844 23.00419922 -12.9765625 21.98828125 C-12.53054687 21.10527344 -12.08453125 20.22226562 -11.625 19.3125 C-11.18414062 18.44238281 -10.74328125 17.57226562 -10.2890625 16.67578125 C-9.07335732 14.15227201 -8.00739042 11.61262468 -7 9 C-9.93200474 11.85276137 -12.64315404 14.65079784 -15 18 C-14.40149595 11.61595682 -10.60557362 6.15252347 -5.875 2 C-3 0 -3 0 0 0 Z " fill="#E5E6E7" transform="translate(169,267)"/>
<path d="M0 0 C0.33 2.31 0.66 4.62 1 7 C0.34 7 -0.32 7 -1 7 C-1.66 5.35 -2.32 3.7 -3 2 C-9.479797 8.52029574 -13.66756592 15.98781023 -18 24 C-18.99 24 -19.98 24 -21 24 C-18.23217874 14.76036139 -12.53592521 6.99191999 -6 0 C-3.50907189 -1.24546405 -2.58919267 -0.7767578 0 0 Z " fill="#416397" transform="translate(203,257)"/>
<path d="M0 0 C0.66 0 1.32 0 2 0 C2 3.3 2 6.6 2 10 C1.01 9.67 0.02 9.34 -1 9 C-1.33 8.01 -1.66 7.02 -2 6 C-2.33 7.32 -2.66 8.64 -3 10 C-5.97 10 -8.94 10 -12 10 C-11.34 9.67 -10.68 9.34 -10 9 C-10 6.69 -10 4.38 -10 2 C-10.66 1.67 -11.32 1.34 -12 1 C-8.7 1 -5.4 1 -2 1 C-1.67 1.66 -1.34 2.32 -1 3 C-0.67 2.01 -0.34 1.02 0 0 Z " fill="#D5D9DF" transform="translate(368,386)"/>
<path d="M0 0 C0.33 0.66 0.66 1.32 1 2 C1.66 2 2.32 2 3 2 C2.62074016 4.65481889 2.23098755 5.78927452 0.21875 7.625 C-2.76112139 10.81472149 -4.38247366 14.33511145 -6.25 18.25 C-6.79527344 19.36761719 -6.79527344 19.36761719 -7.3515625 20.5078125 C-8.24172145 22.33498087 -9.1218739 24.16701834 -10 26 C-10.99 26 -11.98 26 -13 26 C-11.58707905 21.1725201 -9.57025846 17.2837641 -7 13 C-7.66 12.67 -8.32 12.34 -9 12 C-8.401875 11.29875 -7.80375 10.5975 -7.1875 9.875 C-4.90256122 7.05657735 -4.90256122 7.05657735 -3.375 3.75 C-2 1 -2 1 0 0 Z " fill="#32588F" transform="translate(363,275)"/>
<path d="M0 0 C1.134375 0.020625 2.26875 0.04125 3.4375 0.0625 C3.4375 0.7225 3.4375 1.3825 3.4375 2.0625 C1.7875 2.0625 0.1375 2.0625 -1.5625 2.0625 C-1.5625 3.0525 -1.5625 4.0425 -1.5625 5.0625 C-0.2425 5.3925 1.0775 5.7225 2.4375 6.0625 C1.1175 6.0625 -0.2025 6.0625 -1.5625 6.0625 C-1.5625 7.3825 -1.5625 8.7025 -1.5625 10.0625 C-4.5325 10.0625 -7.5025 10.0625 -10.5625 10.0625 C-9.9025 9.7325 -9.2425 9.4025 -8.5625 9.0625 C-8.5625 6.7525 -8.5625 4.4425 -8.5625 2.0625 C-9.2225 1.7325 -9.8825 1.4025 -10.5625 1.0625 C-9.1084375 1.0934375 -9.1084375 1.0934375 -7.625 1.125 C-3.88736045 1.04872164 -3.92115709 0.06879223 0 0 Z " fill="#7E95B5" transform="translate(261.5625,385.9375)"/>
<path d="M0 0 C-0.45150104 5.16547799 -2.00877459 7.85992508 -5.3125 11.8125 C-6.09238281 12.76769531 -6.87226563 13.72289062 -7.67578125 14.70703125 C-9.92539119 16.92639433 -10.92063301 17.68290271 -14 18 C-5.78640777 0 -5.78640777 0 0 0 Z " fill="#E8E9E9" transform="translate(371,244)"/>
<path d="M0 0 C-1.12639068 7.88473478 -6.11762549 12.9668855 -12 18 C-12.66 18 -13.32 18 -14 18 C-12.77318671 12.68380909 -6.41106453 0 0 0 Z " fill="#EBEBEA" transform="translate(331,249)"/>
<path d="M0 0 C1 3 1 3 0.0625 5.1875 C-1.3789135 9.00300634 -1.20032736 11.92667709 -1 16 C-0.67 16.66 -0.34 17.32 0 18 C3.63 18 7.26 18 11 18 C11 18.66 11 19.32 11 20 C8.54617866 21.22691067 6.80015897 21.20175931 4.0625 21.25 C3.18722656 21.27578125 2.31195313 21.3015625 1.41015625 21.328125 C-1 21 -1 21 -2.79296875 19.81640625 C-5.27902848 16.0752484 -4.47216337 11.29852625 -4 7 C-2.02857143 2.02857143 -2.02857143 2.02857143 0 0 Z " fill="#335990" transform="translate(183,280)"/>
<path d="M0 0 C5.875 0.875 5.875 0.875 7 2 C7.75551963 9.05151652 5.80673985 13.12674423 2 19 C1.01 19 0.02 19 -1 19 C1 14 1 14 2.0625 11.5625 C3.10139486 8.72285406 3.58292134 5.98906375 4 3 C2.68 2.67 1.36 2.34 0 2 C0 1.34 0 0.68 0 0 Z " fill="#406397" transform="translate(165,264)"/>
<path d="M0 0 C3.53571429 0.53571429 3.53571429 0.53571429 5 2 C5.04092937 4.33297433 5.04241723 6.66705225 5 9 C2.625 9.625 2.625 9.625 0 10 C-2 8 -2 8 -2.25 5 C-2 2 -2 2 0 0 Z " fill="#4F6F9E" transform="translate(284,386)"/>
<path d="M0 0 C1.65 0 3.3 0 5 0 C7 2 7 2 7.1953125 3.9453125 C7.13020833 5.96354167 7.06510417 7.98177083 7 10 C5 10 5 10 3.375 8.5 C2.92125 8.005 2.4675 7.51 2 7 C2 7.99 2 8.98 2 10 C1.34 10 0.68 10 0 10 C0 6.7 0 3.4 0 0 Z " fill="#6480A8" transform="translate(339,386)"/>
<path d="M0 0 C0.66 0.33 1.32 0.66 2 1 C0.5304003 4.80609809 -1.38491469 6.1731926 -4.875 8.1875 C-5.73867188 8.69667969 -6.60234375 9.20585937 -7.4921875 9.73046875 C-9.70317292 10.84973707 -11.58072142 11.53302297 -14 12 C-13.875 10.23046875 -13.875 10.23046875 -13 8 C-10.3125 6.11328125 -10.3125 6.11328125 -7 4.3125 C-3.28009172 2.4673105 -3.28009172 2.4673105 0 0 Z " fill="#3C6094" transform="translate(310,265)"/>
<path d="M0 0 C2.31 0 4.62 0 7 0 C7 0.66 7 1.32 7 2 C5.35 2 3.7 2 2 2 C2 2.66 2 3.32 2 4 C3.32 4 4.64 4 6 4 C6 4.66 6 5.32 6 6 C5.01 6 4.02 6 3 6 C3 6.66 3 7.32 3 8 C4.32 8 5.64 8 7 8 C7 8.66 7 9.32 7 10 C4.69 10 2.38 10 0 10 C0 6.7 0 3.4 0 0 Z " fill="#617DA7" transform="translate(266,386)"/>
<path d="M0 0 C0.33 0 0.66 0 1 0 C1 3.3 1 6.6 1 10 C1.99 10.33 2.98 10.66 4 11 C4 11.99 4 12.98 4 14 C7.465 13.505 7.465 13.505 11 13 C10.67 14.32 10.34 15.64 10 17 C7.69 17 5.38 17 3 17 C-0.61601216 11.42531458 -0.30720059 6.39432346 0 0 Z " fill="#48699A" transform="translate(127,287)"/>
<path d="M0 0 C0.66 0.33 1.32 0.66 2 1 C1.34 1.66 0.68 2.32 0 3 C0 3.99 0 4.98 0 6 C-1.63978318 7.04349839 -3.31464976 8.03182008 -5 9 C-7.39553903 10.93028972 -9.70267994 12.95425966 -12 15 C-12 10.09687565 -8.29800369 7.38658643 -5 4 C-3.37458956 2.61667196 -1.72614587 1.25537882 0 0 Z " fill="#3A5E93" transform="translate(355,284)"/>
<path d="M0 0 C0.66 0 1.32 0 2 0 C2 3.3 2 6.6 2 10 C1.34 10 0.68 10 0 10 C-0.33 9.34 -0.66 8.68 -1 8 C-1.33 8.66 -1.66 9.32 -2 10 C-2.66 10 -3.32 10 -4 10 C-4 7.03 -4 4.06 -4 1 C-3.01 1.33 -2.02 1.66 -1 2 C-0.67 1.34 -0.34 0.68 0 0 Z " fill="#436598" transform="translate(295,386)"/>
<path d="M0 0 C2.31 0 4.62 0 7 0 C7 0.66 7 1.32 7 2 C5.35 2 3.7 2 2 2 C2 2.66 2 3.32 2 4 C3.32 4 4.64 4 6 4 C6 4.66 6 5.32 6 6 C4.68 6 3.36 6 2 6 C2 6.99 2 7.98 2 9 C3.32 9.33 4.64 9.66 6 10 C4.02 10 2.04 10 0 10 C0 6.7 0 3.4 0 0 Z " fill="#50709E" transform="translate(323,386)"/>
<path d="M0 0 C2.125 0.375 2.125 0.375 4 1 C4 1.66 4 2.32 4 3 C2.68 2.67 1.36 2.34 0 2 C0 3.98 0 5.96 0 8 C0.33 7.01 0.66 6.02 1 5 C1.99 5 2.98 5 4 5 C4 6.65 4 8.3 4 10 C2.33388095 10.042721 0.66617115 10.04063832 -1 10 C-2 9 -2 9 -2.1875 5.5625 C-2 2 -2 2 0 0 Z " fill="#496A9B" transform="translate(374,386)"/>
<path d="M0 0 C2.125 0.375 2.125 0.375 4 1 C4 1.66 4 2.32 4 3 C2.68 2.67 1.36 2.34 0 2 C0 3.98 0 5.96 0 8 C0.33 7.01 0.66 6.02 1 5 C1.99 5 2.98 5 4 5 C4 6.65 4 8.3 4 10 C2.33388095 10.042721 0.66617115 10.04063832 -1 10 C-2 9 -2 9 -2.1875 5.5625 C-2 2 -2 2 0 0 Z " fill="#496A9B" transform="translate(301,386)"/>
<path d="M0 0 C0.99 0 1.98 0 3 0 C4.49821059 3.37097383 5 5.20442119 5 9 C4.34 9 3.68 9 3 9 C3 8.34 3 7.68 3 7 C2.01 7 1.02 7 0 7 C0 7.66 0 8.32 0 9 C-0.66 9 -1.32 9 -2 9 C-1.34 6.03 -0.68 3.06 0 0 Z " fill="#50709E" transform="translate(333,387)"/>
<path d="M0 0 C0.66 0 1.32 0 2 0 C2 3.3 2 6.6 2 10 C1.01 9.67 0.02 9.34 -1 9 C-1.33 8.01 -1.66 7.02 -2 6 C-2.66 7.32 -3.32 8.64 -4 10 C-4 7.03 -4 4.06 -4 1 C-3.34 1 -2.68 1 -2 1 C-1.67 1.66 -1.34 2.32 -1 3 C-0.67 2.01 -0.34 1.02 0 0 Z " fill="#3D6195" transform="translate(368,386)"/>
<path d="M0 0 C0.66 0 1.32 0 2 0 C2 3.3 2 6.6 2 10 C1.01 9.67 0.02 9.34 -1 9 C-1.33 8.01 -1.66 7.02 -2 6 C-2.66 7.32 -3.32 8.64 -4 10 C-4 7.03 -4 4.06 -4 1 C-3.34 1 -2.68 1 -2 1 C-1.67 1.66 -1.34 2.32 -1 3 C-0.67 2.01 -0.34 1.02 0 0 Z " fill="#3D6195" transform="translate(352,386)"/>
<path d="M0 0 C0 1.98 0 3.96 0 6 C-0.33 6 -0.66 6 -1 6 C-1 4.35 -1 2.7 -1 1 C-4.63 1.66 -8.26 2.32 -12 3 C-12.33 2.01 -12.66 1.02 -13 0 C-7.76054572 -1.71289851 -4.90876951 -2.45438476 0 0 Z " fill="#4E6E9E" transform="translate(286,267)"/>
<path d="M0 0 C0.66 0 1.32 0 2 0 C2 5.61 2 11.22 2 17 C1.34 17 0.68 17 0 17 C-0.19386492 14.35448944 -0.38038267 11.70882217 -0.5625 9.0625 C-0.61857422 8.30775391 -0.67464844 7.55300781 -0.73242188 6.77539062 C-0.86176157 4.85254042 -0.93516912 2.92610452 -1 1 C-0.67 0.67 -0.34 0.34 0 0 Z " fill="#31578F" transform="translate(128,280)"/>
<path d="M0 0 C0.99 0.33 1.98 0.66 3 1 C-2.10447761 7.52238806 -2.10447761 7.52238806 -6 9 C-6.99 9.495 -6.99 9.495 -8 10 C-6.34908222 5.70761377 -3.26245434 3.1206085 0 0 Z " fill="#3E6195" transform="translate(245,260)"/>
<path d="M0 0 C1 3 1 3 0.22265625 5.04296875 C-0.16019531 5.75066406 -0.54304687 6.45835937 -0.9375 7.1875 C-1.31777344 7.90292969 -1.69804688 8.61835938 -2.08984375 9.35546875 C-2.39019531 9.89816406 -2.69054687 10.44085938 -3 11 C-3.66 11 -4.32 11 -5 11 C-5.33 11.99 -5.66 12.98 -6 14 C-6.33 13.34 -6.66 12.68 -7 12 C-5.8203125 9.43359375 -5.8203125 9.43359375 -4.125 6.4375 C-3.57070312 5.44621094 -3.01640625 4.45492187 -2.4453125 3.43359375 C-1 1 -1 1 0 0 Z " fill="#345991" transform="translate(129,245)"/>
<path d="M0 0 C1 3 1 3 0.00390625 5.48046875 C-0.47175781 6.37378906 -0.94742188 7.26710938 -1.4375 8.1875 C-1.91058594 9.08855469 -2.38367188 9.98960937 -2.87109375 10.91796875 C-3.24363281 11.60503906 -3.61617188 12.29210937 -4 13 C-4.66 12.67 -5.32 12.34 -6 12 C-4.68139111 7.38486888 -2.78644563 3.90102388 0 0 Z " fill="#335990" transform="translate(117,270)"/>
<path d="M0 0 C0.66 0 1.32 0 2 0 C2 2.64 2 5.28 2 8 C3.32 8 4.64 8 6 8 C6 8.66 6 9.32 6 10 C4.02 10 2.04 10 0 10 C0 6.7 0 3.4 0 0 Z " fill="#5775A2" transform="translate(275,386)"/>
<path d="M0 0 C1.125 3.75 1.125 3.75 0 6 C-1.32 6 -2.64 6 -4 6 C-4.33 6.99 -4.66 7.98 -5 9 C-5 6.36 -5 3.72 -5 1 C-3.35 0.67 -1.7 0.34 0 0 Z " fill="#D3D8DE" transform="translate(265,387)"/>
<path d="M0 0 C0.99 0.99 1.98 1.98 3 3 C1.68 5.31 0.36 7.62 -1 10 C-1.99 10 -2.98 10 -4 10 C-2.8905928 6.51329166 -1.73662334 3.22515763 0 0 Z " fill="#466799" transform="translate(186,271)"/>
<path d="M0 0 C1 3 1 3 0.22265625 5.04296875 C-0.16019531 5.75066406 -0.54304688 6.45835937 -0.9375 7.1875 C-1.31777344 7.90292969 -1.69804687 8.61835938 -2.08984375 9.35546875 C-2.54037109 10.16951172 -2.54037109 10.16951172 -3 11 C-3.99 11 -4.98 11 -6 11 C-4.74194623 6.49197399 -3.09592835 3.5087188 0 0 Z " fill="#456799" transform="translate(266,198)"/>
<path d="M0 0 C0 2.97 0 5.94 0 9 C-3 5.25 -3 5.25 -3 3 C-4.32 3 -5.64 3 -7 3 C-7 2.34 -7 1.68 -7 1 C-2.25 0 -2.25 0 0 0 Z " fill="#D8DCE1" transform="translate(275,387)"/>
<path d="M0 0 C1.65 0 3.3 0 5 0 C5 2.97 5 5.94 5 9 C3.35 9 1.7 9 0 9 C0.66 8.67 1.32 8.34 2 8 C2 5.69 2 3.38 2 1 C1.34 0.67 0.68 0.34 0 0 Z " fill="#3E6296" transform="translate(356,387)"/>
<path d="M0 0 C-1.29299694 2.88437779 -2.65941363 4.87219421 -5 7 C-5.99 6.67 -6.98 6.34 -8 6 C-3.375 0 -3.375 0 0 0 Z " fill="#3E6296" transform="translate(399,251)"/>
<path d="M0 0 C1.37432457 3.81756824 0.67975039 7.07255329 0 11 C-1.5625 9.375 -1.5625 9.375 -3 7 C-2.8125 3.8125 -2.8125 3.8125 -2 1 C-1.34 0.67 -0.68 0.34 0 0 Z " fill="#426497" transform="translate(307,339)"/>
<path d="M0 0 C0.66 0 1.32 0 2 0 C1.25 5.75 1.25 5.75 -1 8 C-1.66 8 -2.32 8 -3 8 C-2.37240135 5.07120629 -1.41377341 2.63904371 0 0 Z " fill="#3C6095" transform="translate(291,255)"/>
<path d="M0 0 C0.33 0.99 0.66 1.98 1 3 C-0.78346291 6.03188696 -1.59575156 6.86525052 -5 8 C-3.375 2.25 -3.375 2.25 0 0 Z " fill="#416497" transform="translate(270,338)"/>
<path d="M0 0 C0 0.66 0 1.32 0 2 C-3.21451269 3.60725635 -6.43612536 3.05748185 -10 3 C-10 2.34 -10 1.68 -10 1 C-3.375 0 -3.375 0 0 0 Z " fill="#2D548D" transform="translate(194,298)"/>
<path d="M0 0 C0.33 0 0.66 0 1 0 C1 3.3 1 6.6 1 10 C0.01 9.34 -0.98 8.68 -2 8 C-2.1875 4.875 -2.1875 4.875 -2 2 C-1.34 2 -0.68 2 0 2 C0 1.34 0 0.68 0 0 Z " fill="#4D6D9D" transform="translate(261,258)"/>
<path d="M0 0 C1 3 1 3 0.25 5.625 C-1 8 -1 8 -4 9 C-2.25 2.25 -2.25 2.25 0 0 Z " fill="#3B5F94" transform="translate(183,280)"/>
<path d="M0 0 C2.16874252 0.50603992 3.99967627 0.99983813 6 2 C6 3.98 6 5.96 6 8 C5.67 8 5.34 8 5 8 C5 6.35 5 4.7 5 3 C3.02 3 1.04 3 -1 3 C-0.67 2.01 -0.34 1.02 0 0 Z " fill="#5D7AA5" transform="translate(280,265)"/>
<path d="M0 0 C2.375 -0.125 2.375 -0.125 5 0 C7 2 7 2 7 5 C6.34 5 5.68 5 5 5 C4.67 4.34 4.34 3.68 4 3 C1.47266765 2.34444881 1.47266765 2.34444881 -1 2 C-0.67 1.34 -0.34 0.68 0 0 Z " fill="#2A528C" transform="translate(254,255)"/>
<path d="M0 0 C0.66 0 1.32 0 2 0 C1.67 1.98 1.34 3.96 1 6 C0.01 6 -0.98 6 -2 6 C-1.125 1.125 -1.125 1.125 0 0 Z " fill="#3F6296" transform="translate(298,241)"/>
<path d="M0 0 C0.33 0.99 0.66 1.98 1 3 C-0.3125 5.1875 -0.3125 5.1875 -2 7 C-2.66 7 -3.32 7 -4 7 C-3.39816251 4.97954558 -2.72693904 2.97888961 -2 1 C-1.34 0.67 -0.68 0.34 0 0 Z " fill="#46689A" transform="translate(247,239)"/>
<path d="M0 0 C0.66 0 1.32 0 2 0 C2 1.98 2 3.96 2 6 C1.01 6 0.02 6 -1 6 C-1.042721 4.33388095 -1.04063832 2.66617115 -1 1 C-0.67 0.67 -0.34 0.34 0 0 Z " fill="#E5E7E8" transform="translate(285,388)"/>
<path d="M0 0 C2.125 0.375 2.125 0.375 4 1 C4 1.66 4 2.32 4 3 C2.68 2.67 1.36 2.34 0 2 C0 3.98 0 5.96 0 8 C-0.33 8 -0.66 8 -1 8 C-1.625 5.125 -1.625 5.125 -2 2 C-1.34 1.34 -0.68 0.68 0 0 Z " fill="#627EA7" transform="translate(374,386)"/>
<path d="M0 0 C2.125 0.375 2.125 0.375 4 1 C4 1.66 4 2.32 4 3 C2.68 2.67 1.36 2.34 0 2 C0 3.98 0 5.96 0 8 C-0.33 8 -0.66 8 -1 8 C-1.625 5.125 -1.625 5.125 -2 2 C-1.34 1.34 -0.68 0.68 0 0 Z " fill="#627EA7" transform="translate(301,386)"/>
<path d="M0 0 C1 3 1 3 0.25 5.125 C-1 7 -1 7 -4 8 C-2.25 2.25 -2.25 2.25 0 0 Z " fill="#365B92" transform="translate(250,232)"/>
<path d="M0 0 C1 3 1 3 0.25 5.125 C-1 7 -1 7 -4 8 C-2.25 2.25 -2.25 2.25 0 0 Z " fill="#365B92" transform="translate(261,208)"/>
</svg>
